              <svg xmlns="http://www.w3.org/2000/svg" width="28" height="28">
                <path d="M5.408 9.392c8.664-1.32 8.664-1.32 17.304 0 1.248 7.68 1.248 7.68 1.248 16.056-9.888.768-9.888.768-19.8 0 0-8.376 0-8.376 1.248-16.056z" stroke="#000" stroke-width="2" fill="#bbb"></path>
                <path d="M13.76 3.8h.6c.336 0 .576.24.576.552V8.6c0 .312-.24.552-.576.552h-.6a.564.564 0 0 1-.576-.552V4.352c0-.312.264-.552.576-.552zM5.96 4.568l.624-.048c.312-.024.6.192.624.504l.384 4.224c.024.288-.216.552-.528.576l-.624.072a.545.545 0 0 1-.6-.504l-.384-4.224a.545.545 0 0 1 .504-.6zM9.872 4.064l.6-.024a.564.564 0 0 1 .6.528l.192 4.224a.55.55 0 0 1-.552.576l-.624.048a.564.564 0 0 1-.576-.552L9.32 4.64a.535.535 0 0 1 .552-.576zM17.648 4.04l.624.024a.53.53 0 0 1 .528.576l-.192 4.224a.564.564 0 0 1-.576.552l-.624-.048a.564.564 0 0 1-.552-.576l.192-4.224a.564.564 0 0 1 .6-.528zM21.536 4.52l.624.048a.545.545 0 0 1 .504.6l-.36 4.224a.582.582 0 0 1-.624.504l-.624-.072c-.312-.024-.552-.288-.528-.576l.384-4.224c.024-.312.312-.528.624-.504z"
                stroke="#000" stroke-width="2" fill="#bbb"></path>
                <path d="M2.432 3.056c11.64-1.248 11.64-1.248 23.256 0 .84.696-.168 2.256-.984 2.928-11.64-1.368-9.648-1.368-21.288 0-.816-.672-1.8-2.232-.984-2.928z" stroke="#000" stroke-width="2" fill="#bbb"></path>
              </svg>
