              <svg xmlns="http://www.w3.org/2000/svg" width="28" height="28">
                <path d="M8 22.4c0 1.32-1.08 2.4-2.4 2.4-1.32 0-2.4-1.08-2.4-2.4 0-1.32 1.08-2.4 2.4-2.4C6.92 20 8 21.08 8 22.4zM24.8 22.4c0 1.32-1.08 2.4-2.4 2.4-1.32 0-2.4-1.08-2.4-2.4 0-1.32 1.08-2.4 2.4-2.4 1.32 0 2.4 1.08 2.4 2.4zM8 5.6C8 6.92 6.92 8 5.6 8 4.28 8 3.2 6.92 3.2 5.6c0-1.32 1.08-2.4 2.4-2.4C6.92 3.2 8 4.28 8 5.6zM24.8 5.6c0 1.32-1.08 2.4-2.4 2.4C21.08 8 20 6.92 20 5.6c0-1.32 1.08-2.4 2.4-2.4 1.32 0 2.4 1.08 2.4 2.4z"
                stroke="#000" stroke-width="2"></path>
                <path d="M25.856 14c0 6.552-5.304 11.856-11.856 11.856S2.144 20.552 2.144 14 7.448 2.144 14 2.144 25.856 7.448 25.856 14z" stroke="#000" stroke-width="2" fill="#bbb"></path>
              </svg>
