              <svg xmlns="http://www.w3.org/2000/svg" width="28" height="28">
                <path d="M8.984 23.312l1.44.816-.864 1.464c-.552.96-2.016.168-1.44-.816l.864-1.464zM19.04 23.312l-1.44.816.864 1.464c.552.96 2.016.168 1.44-.816l-.864-1.464z"></path>
                <path d="M25.448 11.432c0 2.16-5.136 3.936-11.448 3.936-6.336 0-11.448-1.776-11.448-3.936 0-2.184 5.112-3.936 11.448-3.936 6.312 0 11.448 1.752 11.448 3.936z" stroke="#000" stroke-width="2" fill="#aaa"></path>
                <path d="M8.984 24.872h10.032l-.552-12.864H9.56zM22.688 7.856c0 1.896-3.888 3.408-8.688 3.408-4.8 0-8.688-1.512-8.688-3.408S9.2 4.448 14 4.448c4.8 0 8.688 1.512 8.688 3.408z" stroke="#000" stroke-width="2" fill="#aaa"></path>
                <path d="M22.688 6.44c0 1.896-3.888 3.408-8.688 3.408-4.8 0-8.688-1.512-8.688-3.408S9.2 3.032 14 3.032c4.8 0 8.688 1.512 8.688 3.408z" stroke="#000" stroke-width="2" fill="#aaa"></path>
                <path d="M2.168 7.712c.768-2.136 5.016-3.576 4.848-1.056-.096 1.32.816 3.096-.192 3.96-1.176 1.008-4.392 1.44-4.632-.336-.24-1.704-.192-2.064-.024-2.568zM25.856 7.712c-.768-2.136-5.016-3.576-4.848-1.056.096 1.32-.816 3.096.192 3.96 1.152 1.008 4.392 1.44 4.632-.336.216-1.704.192-2.064.024-2.568z"
                stroke="#000" stroke-width="2" fill="#aaa"></path>
                <path d="M5.096 2.72C14 1.784 14 1.808 22.904 2.72c0 0 .672.12.888.888.216.744 0 2.064-.888 3.384C14 8.384 14 8.36 5.096 6.992c-.864-1.296-.984-2.64-.864-3.384.144-.768.864-.888.864-.888zM6.176 12.128l3.384.048-.576 12.552s-3.624 1.08-4.752 0c-1.536-1.512-.312-4.296 0-6.408.336-2.136 1.944-6.192 1.944-6.192zM21.8 12.128l-3.336.048.552 12.552s3.624 1.08 4.752 0c1.536-1.512.312-4.296 0-6.408-.336-2.136-1.968-6.192-1.968-6.192z"
                stroke="#000" stroke-width="2" fill="#aaa"></path>
                <path d="M2.792 11.84h2.304v8.712c0 2.136-1.968 2.088-2.304 0V11.84zM25.184 11.84h-2.28v8.712c0 2.136 1.968 2.088 2.28 0V11.84z" fill="#2b2b2b"></path>
              </svg>
