              <svg xmlns="http://www.w3.org/2000/svg" width="28" height="28">
                <path d="M5.75 7.424h16.544c.572 0 1.034.528 1.034 1.2v16.2c0 .648-.462 1.176-1.034 1.176H5.75c-.594 0-1.056-.528-1.056-1.176v-16.2c0-.672.462-1.2 1.056-1.2z" stroke="#000" stroke-width="2" fill="#bbb"></path>
                <path d="M23.372 4.712V21.44h1.144c.264 0 .484-.264.484-.576V5.288c0-.336-.22-.576-.484-.576h-1.144z" stroke="#000" stroke-width="2"></path>
                <path d="M5.728 2.024h16.566c.572 0 1.034.528 1.034 1.176v3c0 .672-.462 1.2-1.034 1.2H5.728c-.572 0-1.034-.528-1.034-1.2v-3c0-.648.462-1.176 1.034-1.176z" stroke="#000" stroke-width="2" fill="#bbb"></path>
                <path d="M4.65 4.712V21.44H3.528c-.286 0-.506-.264-.506-.576V5.288c0-.336.22-.576.506-.576H4.65z" stroke="#000" stroke-width="2"></path>
              </svg>
