              <svg xmlns="http://www.w3.org/2000/svg" width="28" height="28">
                <path d="M8.48 20.408l1.752.984-2.472 4.152c-.672 1.176-2.448.168-1.776-.984l2.496-4.152zM19.568 20.408l-1.752.984 2.472 4.152c.672 1.176 2.448.168 1.776-.984l-2.496-4.152z" stroke="#000" stroke-width="2"></path>
                <path d="M25.112 15.056c0-5.904-4.968-10.704-11.088-10.704-6.12 0-11.088 4.8-11.088 10.704 0 5.904 4.968 10.704 11.088 10.704 6.12 0 11.088-4.8 11.088-10.704z" stroke="#000" stroke-width="2" fill="#ccc"></path>
                <path d="M2.936 3.488c11.088-1.968 11.088-1.992 22.176 0 1.824 2.136.504 4.536-1.128 5.328-.672.312-4.752-1.224-9.96-1.224-5.208-.024-9.312 1.536-9.984 1.224-1.632-.768-2.952-3.192-1.104-5.328z" stroke="#000" stroke-width="2" fill="#666"></path>
                <path d="M2.936 4.016c11.088-1.968 11.088-1.992 22.176 0 1.824 2.136.504 4.536-1.128 5.328-.672.312-4.752-1.224-9.96-1.224-5.208 0-9.312 1.536-9.984 1.224-1.632-.768-2.952-3.192-1.104-5.328z" stroke="#000" stroke-width="2" fill="#ccc"></path>
                <path d="M2.192 9.92h2.4v9.792c-1.656.696-1.656.696-2.4 0V9.92zM23.456 9.92h2.4v9.792c-.744.696-.744.696-2.4 0V9.92z" stroke="#000" stroke-width="2" fill="#666"></path>
              </svg>
