              <svg name="Group" xmlns="http://www.w3.org/2000/svg" version="1.1" xmlns:xlink="http://www.w3.org/1999/xlink" width="56px" height="56px">
                <g transform="matrix(6.123233995736766e-17,1,-1,6.123233995736766e-17,66.69177381670039,-20.035498910572283)">
                  <path d="M 40.11363636363634 20.737591998518603 L 46.63096969696967 20.737591998518603 C 46.856303030303 20.737591998518603 47.038303030303 20.9455919985186 47.038303030303 21.210319271245876 L 47.038303030303 27.592137453064055 C 47.038303030303 27.84741018033678 46.856303030303 28.055410180336782 46.63096969696967 28.055410180336782 L 40.11363636363634 28.055410180336782 C 39.87963636363634 28.055410180336782 39.697636363636335 27.84741018033678 39.697636363636335 27.592137453064055 L 39.697636363636335 21.210319271245876 C 39.697636363636335 20.9455919985186 39.87963636363634 20.737591998518603 40.11363636363634 20.737591998518603 Z" stroke="#000000" stroke-opacity="1" stroke-width="2" fill="#bbbbbb" fill-opacity="1"></path>
                  <path d="M 47.05563636363634 19.669228362154964 L 47.05563636363634 26.259046543973145 L 47.506303030303 26.259046543973145 C 47.610303030303 26.259046543973145 47.69696969696967 26.155046543973146 47.69696969696967 26.032137453064056 L 47.69696969696967 19.896137453064057 C 47.69696969696967 19.763773816700418 47.610303030303 19.669228362154964 47.506303030303 19.669228362154964 L 47.05563636363634 19.669228362154964 Z" stroke="#000000" stroke-opacity="1" stroke-width="2" fill="#000000" fill-opacity="1"></path>
                  <path d="M 40.10496969696967 18.610319271245874 L 46.63096969696967 18.610319271245874 C 46.856303030303 18.610319271245874 47.038303030303 18.818319271245873 47.038303030303 19.0735919985186 L 47.038303030303 20.25541018033678 C 47.038303030303 20.520137453064056 46.856303030303 20.728137453064058 46.63096969696967 20.728137453064058 L 40.10496969696967 20.728137453064058 C 39.87963636363634 20.728137453064058 39.697636363636335 20.520137453064056 39.697636363636335 20.25541018033678 L 39.697636363636335 19.0735919985186 C 39.697636363636335 18.818319271245873 39.87963636363634 18.610319271245874 40.10496969696967 18.610319271245874 Z" stroke="#000000" stroke-opacity="1" stroke-width="2" fill="#bbbbbb" fill-opacity="1"></path>
                  <path d="M 39.680303030303 19.669228362154964 L 39.680303030303 26.259046543973145 L 39.238303030303 26.259046543973145 C 39.12563636363634 26.259046543973145 39.03896969696967 26.155046543973146 39.03896969696967 26.032137453064056 L 39.03896969696967 19.896137453064057 C 39.03896969696967 19.763773816700418 39.12563636363634 19.669228362154964 39.238303030303 19.669228362154964 L 39.680303030303 19.669228362154964 Z" stroke="#000000" stroke-opacity="1" stroke-width="2" fill="#000000" fill-opacity="1"></path>
                </g>
                <g transform="matrix(-0.7071067811865475,0.7071067811865476,-0.7071067811865476,-0.7071067811865475,42.98465605295447,24.41999869457129)">
                  <path d="M 14.376447366931547 24.933625224036014 L 14.967356457840637 25.2684737088845 L 14.612811003295183 25.869231284642076 C 14.386295851780032 26.263170678581467 13.785538276022457 25.93817067858147 14.021901912386094 25.53438279979359 L 14.376447366931547 24.933625224036014 Z" fill="#000000" fill-opacity="1"></path>
                  <path d="M 18.502962518446697 24.933625224036014 L 17.912053427537607 25.2684737088845 L 18.266598882083063 25.869231284642076 C 18.493114033598214 26.263170678581467 19.09387160935579 25.93817067858147 18.857507972992153 25.53438279979359 L 18.502962518446697 24.933625224036014 Z" fill="#000000" fill-opacity="1"></path>
                  <path d="M 21.13250797299215 20.058625224036017 C 21.13250797299215 20.944988860399654 19.024932215416396 21.67377673918753 16.43478070026488 21.67377673918753 C 13.834780700264881 21.67377673918753 11.737053427537608 20.944988860399654 11.737053427537608 20.058625224036017 C 11.737053427537608 19.162413102823894 13.834780700264881 18.4434737088845 16.43478070026488 18.4434737088845 C 19.024932215416396 18.4434737088845 21.13250797299215 19.162413102823894 21.13250797299215 20.058625224036017 Z" stroke="#000000" stroke-opacity="1" stroke-width="2" fill="#aaaaaa" fill-opacity="1"></path>
                  <path d="M 14.376447366931547 25.57377673918753 L 18.493114033598214 25.57377673918753 L 18.266598882083063 20.294988860399652 L 14.612811003295183 20.294988860399652 Z" stroke="#000000" stroke-opacity="1" stroke-width="2" fill="#aaaaaa" fill-opacity="1"></path>
                  <path d="M 19.999932215416393 18.591200981611774 C 19.999932215416393 19.369231284642076 18.40447766996185 19.989685830096622 16.43478070026488 19.989685830096622 C 14.465083730567912 19.989685830096622 12.869629185113366 19.369231284642076 12.869629185113366 18.591200981611774 C 12.869629185113366 17.81317067858147 14.465083730567912 17.192716133126925 16.43478070026488 17.192716133126925 C 18.40447766996185 17.192716133126925 19.999932215416393 17.81317067858147 19.999932215416393 18.591200981611774 Z" stroke="#000000" stroke-opacity="1" stroke-width="2" fill="#aaaaaa" fill-opacity="1"></path>
                  <path d="M 19.999932215416393 18.010140375551167 C 19.999932215416393 18.788170678581473 18.40447766996185 19.408625224036015 16.43478070026488 19.408625224036015 C 14.465083730567912 19.408625224036015 12.869629185113366 18.788170678581473 12.869629185113366 18.010140375551167 C 12.869629185113366 17.232110072520864 14.465083730567912 16.61165552706632 16.43478070026488 16.61165552706632 C 18.40447766996185 16.61165552706632 19.999932215416393 17.232110072520864 19.999932215416393 18.010140375551167 Z" stroke="#000000" stroke-opacity="1" stroke-width="2" fill="#aaaaaa" fill-opacity="1"></path>
                  <path d="M 11.57947766996185 18.532110072520865 C 11.894629185113367 17.655594921005715 13.637811003295184 17.06468583009662 13.56887160935579 18.09877673918753 C 13.52947766996185 18.6404434058542 13.903720094204274 19.369231284642076 13.49008373056791 19.72377673918753 C 13.007507972992153 20.137413102823896 11.687811003295185 20.31468583009662 11.589326154810335 19.585897951308745 C 11.490841306325487 18.88665552706632 11.510538276022457 18.738928254339047 11.57947766996185 18.532110072520865 Z" stroke="#000000" stroke-opacity="1" stroke-width="2" fill="#aaaaaa" fill-opacity="1"></path>
                  <path d="M 21.299932215416398 18.532110072520865 C 20.984780700264878 17.655594921005715 19.24159888208306 17.06468583009662 19.310538276022456 18.09877673918753 C 19.349932215416395 18.6404434058542 18.97568979117397 19.369231284642076 19.389326154810334 19.72377673918753 C 19.862053427537607 20.137413102823896 21.191598882083063 20.31468583009662 21.29008373056791 19.585897951308745 C 21.378720094204276 18.88665552706632 21.368871609355786 18.738928254339047 21.299932215416398 18.532110072520865 Z" stroke="#000000" stroke-opacity="1" stroke-width="2" fill="#aaaaaa" fill-opacity="1"></path>
                  <path d="M 12.780992821477003 16.483625224036018 C 16.43478070026488 16.099534314945107 16.43478070026488 16.109382799793593 20.08856857905276 16.483625224036018 C 20.08856857905276 16.483625224036018 20.364326154810335 16.53286764827844 20.452962518446697 16.848019163429957 C 20.541598882083065 17.153322193732986 20.452962518446697 17.694988860399654 20.08856857905276 18.23665552706632 C 16.43478070026488 18.807867648278442 16.43478070026488 18.798019163429956 12.780992821477003 18.23665552706632 C 12.426447366931548 17.704837345248137 12.377204942689124 17.153322193732986 12.426447366931548 16.848019163429957 C 12.485538276022456 16.53286764827844 12.780992821477003 16.483625224036018 12.780992821477003 16.483625224036018 Z" stroke="#000000" stroke-opacity="1" stroke-width="2" fill="#aaaaaa" fill-opacity="1"></path>
                  <path d="M 13.22417463965882 20.344231284642078 L 14.612811003295183 20.363928254339047 L 14.376447366931547 25.514685830096624 C 14.376447366931547 25.514685830096624 12.889326154810336 25.95786764827844 12.426447366931548 25.514685830096624 C 11.796144336628517 24.894231284642075 12.298417063901244 23.751807042217834 12.426447366931548 22.885140375551167 C 12.564326154810335 22.008625224036017 13.22417463965882 20.344231284642078 13.22417463965882 20.344231284642078 Z" stroke="#000000" stroke-opacity="1" stroke-width="2" fill="#aaaaaa" fill-opacity="1"></path>
                  <path d="M 19.635538276022455 20.344231284642078 L 18.266598882083063 20.363928254339047 L 18.493114033598214 25.514685830096624 C 18.493114033598214 25.514685830096624 19.980235245719427 25.95786764827844 20.443114033598214 25.514685830096624 C 21.073417063901246 24.894231284642075 20.571144336628517 23.751807042217834 20.443114033598214 22.885140375551167 C 20.305235245719427 22.008625224036017 19.635538276022455 20.344231284642078 19.635538276022455 20.344231284642078 Z" stroke="#000000" stroke-opacity="1" stroke-width="2" fill="#aaaaaa" fill-opacity="1"></path>
                  <path d="M 11.835538276022456 20.22604946646026 L 12.780992821477003 20.22604946646026 L 12.780992821477003 23.80104946646026 C 12.780992821477003 24.67756461797541 11.973417063901245 24.65786764827844 11.835538276022456 23.80104946646026 L 11.835538276022456 20.22604946646026 Z" fill="#2b2b2b" fill-opacity="1"></path>
                  <path d="M 21.024174639658817 20.22604946646026 L 20.08856857905276 20.22604946646026 L 20.08856857905276 23.80104946646026 C 20.08856857905276 24.67756461797541 20.896144336628517 24.65786764827844 21.024174639658817 23.80104946646026 L 21.024174639658817 20.22604946646026 Z" fill="#2b2b2b" fill-opacity="1"></path>
                </g>
                <g transform="matrix(6.123233995736766e-17,-1,1,6.123233995736766e-17,-37.768541493468106,52.79884452377111)">
                  <path d="M 3.575757575757563 39.76854149346809 L 11.45454545454544 39.76854149346809 L 11.45454545454544 49.223086948013545 L 3.575757575757563 49.223086948013545 Z" stroke="#000000" stroke-opacity="1" stroke-width="2" fill="#999999" fill-opacity="1"></path>
                  <path d="M 4.363636363636351 49.617026341952936 L 10.666666666666654 49.617026341952936 M 4.363636363636351 50.010965735892334 L 10.666666666666654 50.010965735892334" stroke="#000000" stroke-opacity="1" stroke-width="1" fill="#999999" fill-opacity="1"></path>
                </g>
                <path d="M 43.034227973211486 6.677632402559004 L 24.060606060606002 6.677632402559004 L 24.060606060606002 16.13217785710446 L 27.276652215635725 16.13217785710446 C 30.757719729526634 16.13217785710446 33.579682518666026 18.95414064624385 33.57968251866603 22.435208160134756 L 33.579682518666026 25.586723311649912 C 33.579682518666026 28.197523947068092 35.69615461052057 30.31399603892264 38.30695524593875 30.31399603892264 C 40.91775588135694 30.31399603892264 43.034227973211486 28.197523947068092 43.034227973211486 25.586723311649912 Z" stroke="#000000" stroke-opacity="1" stroke-width="2" fill="#eeeeee" fill-opacity="1"></path>
                <path d="M 2.0000000000004086 6.677632402563644 L 24.07488673700711 6.677632402563644 L 24.07488673700711 16.1321778571091 L 20.909090909091315 16.1321778571091 C 15.687489638254952 16.1321778571091 11.454545454545864 20.365122040818186 11.454545454545862 25.586723311654552 L 11.454545454545862 49.32236759744098 L 2.0000000000004086 49.32236759744098 Z" stroke="#000000" stroke-opacity="1" stroke-width="2" fill="#eeeeee" fill-opacity="1"></path>
                <g transform="matrix(6.123233995736766e-17,-1,1,6.123233995736766e-17,-34.61702634195295,44.92005664498322)">
                  <path d="M -4.303030303030315 37.01096573589233 C -4.303030303030315 36.79339901627415 -4.126657628709103 36.617026341952936 -3.909090909090921 36.617026341952936 L -3.1212121212121335 36.617026341952936 C -2.903645401593952 36.617026341952936 -2.72727272727274 36.79339901627415 -2.72727272727274 37.01096573589233 L -2.72727272727274 42.52611725104384 C -2.72727272727274 42.743683970662026 -2.903645401593952 42.92005664498324 -3.1212121212121335 42.92005664498324 L -3.909090909090921 42.92005664498324 C -4.126657628709103 42.92005664498324 -4.303030303030315 42.743683970662026 -4.303030303030315 42.52611725104384 Z" stroke="#000000" stroke-opacity="1" stroke-width="2" fill="#999999" fill-opacity="1"></path>
                  <path d="M 13.030303030303017 37.01096573589233 C 13.030303030303017 36.79339901627415 13.206675704624228 36.617026341952936 13.424242424242411 36.617026341952936 L 14.212121212121197 36.617026341952936 C 14.42968793173938 36.617026341952936 14.606060606060591 36.79339901627415 14.606060606060591 37.01096573589233 L 14.606060606060591 42.52611725104384 C 14.606060606060591 42.743683970662026 14.42968793173938 42.92005664498324 14.212121212121197 42.92005664498324 L 13.424242424242411 42.92005664498324 C 13.206675704624228 42.92005664498324 13.030303030303017 42.743683970662026 13.030303030303017 42.52611725104384 Z" stroke="#000000" stroke-opacity="1" stroke-width="2" fill="#999999" fill-opacity="1"></path>
                  <path d="M -2.72727272727274 36.617026341952936 L 13.030303030303017 36.617026341952936 L 13.030303030303017 42.52611725104384 L -2.72727272727274 42.52611725104384 Z" stroke="#000000" stroke-opacity="1" stroke-width="2" fill="#999999" fill-opacity="1"></path>
                </g>
                <path d="M 20.909090909090903 49.223086948013545 L 1.9999999999999964 49.223086948013545 L 1.9999999999999964 6.677632402559004 L 53.999999999999986 6.677632402559004 L 53.999999999999986 49.223086948013545 L 35.09090909090908 49.223086948013545" stroke="#000000" stroke-opacity="1" stroke-width="5" fill="none"></path>
                <g transform="matrix(0.7071067811865476,-0.7071067811865475,0.7071067811865475,0.7071067811865476,-7.51829222222658,11.535591865288758)">
                  <path d="M 8.671726872658965 12.488995638854345 L 11.90518141811351 12.488995638854345 C 12.169908690840781 12.488995638854345 12.387363236295329 12.701722911581617 12.387363236295329 12.961722911581617 L 12.387363236295329 13.751177457036162 C 12.387363236295329 14.015904729763434 12.169908690840781 14.228632002490707 11.90518141811351 14.228632002490707 L 8.671726872658965 14.228632002490707 C 8.40699959993169 14.228632002490707 8.198999599931692 14.015904729763434 8.198999599931692 13.751177457036162 L 8.198999599931692 12.961722911581617 C 8.198999599931692 12.701722911581617 8.40699959993169 12.488995638854345 8.671726872658965 12.488995638854345 Z" stroke="#000000" stroke-opacity="1" stroke-width="1" fill="#dddddd" fill-opacity="1"></path>
                  <path d="M 7.054999599931692 13.751177457036162 L 13.521908690840782 13.751177457036162 L 14.164817781749873 14.228632002490707 L 6.412090509022601 14.228632002490707 L 7.054999599931692 13.751177457036162 Z" stroke="#000000" stroke-opacity="1" stroke-width="1" fill="#dddddd" fill-opacity="1"></path>
                  <path d="M 8.57718141811351 13.43445018430889 L 11.999726872658965 13.43445018430889 L 11.999726872658965 13.736995638854344 L 8.57718141811351 13.736995638854344 L 8.57718141811351 13.43445018430889 Z" stroke="#000000" stroke-opacity="1" stroke-width="1" fill="#dddddd" fill-opacity="1"></path>
                  <path d="M 10.288454145386236 12.767904729763435 C 10.165545054477146 12.767904729763435 10.061545054477147 12.871904729763436 10.061545054477147 12.999541093399799 C 10.061545054477147 13.046813820672526 10.070999599931692 13.089359275217982 10.099363236295329 13.127177457036163 L 10.099363236295329 13.420268366127072 L 10.486999599931693 13.420268366127072 L 10.486999599931693 13.127177457036163 C 10.505908690840783 13.089359275217982 10.524817781749874 13.046813820672526 10.524817781749874 12.999541093399799 C 10.524817781749874 12.871904729763436 10.420817781749873 12.767904729763435 10.288454145386236 12.767904729763435 Z" stroke="#000000" stroke-opacity="1" stroke-width="1" fill="#dddddd" fill-opacity="1"></path>
                  <path d="M 5.447726872658965 15.093722911581617 L 13.200454145386235 15.093722911581617 L 13.200454145386235 17.206813820672526 L 5.447726872658965 17.206813820672526 L 5.447726872658965 15.093722911581617 Z" stroke="#000000" stroke-opacity="1" stroke-width="1" fill="#dddddd" fill-opacity="1"></path>
                  <path d="M 5.769181418113511 15.405722911581616 L 11.422999599931693 15.405722911581616 L 11.422999599931693 16.86645018430889 L 5.769181418113511 16.86645018430889 L 5.769181418113511 15.405722911581616 Z" stroke="#000000" stroke-opacity="1" stroke-width="1" fill="#6f6f6f" fill-opacity="1"></path>
                  <path d="M 11.744454145386237 15.405722911581616 L 12.878999599931692 15.405722911581616 L 12.878999599931692 16.86645018430889 L 11.744454145386237 16.86645018430889 L 11.744454145386237 15.405722911581616 Z" stroke="#000000" stroke-opacity="1" stroke-width="1" fill="#6f6f6f" fill-opacity="1"></path>
                  <path d="M 14.448454145386236 15.632632002490709 C 14.325545054477145 15.632632002490709 14.240454145386238 15.72245018430889 14.240454145386238 15.835904729763435 L 14.240454145386238 16.412632002490707 C 14.240454145386238 16.422086547945252 14.240454145386238 16.431541093399797 14.240454145386238 16.440995638854343 C 14.240454145386238 16.450450184308888 14.240454145386238 16.464632002490706 14.240454145386238 16.47408654794525 C 14.240454145386238 16.648995638854345 14.382272327204419 16.795541093399798 14.56190869084078 16.795541093399798 C 14.741545054477145 16.795541093399798 14.883363236295327 16.648995638854345 14.883363236295327 16.47408654794525 C 14.883363236295327 16.464632002490706 14.883363236295327 16.450450184308888 14.883363236295327 16.440995638854343 C 14.883363236295327 16.431541093399797 14.883363236295327 16.422086547945252 14.883363236295327 16.412632002490707 L 14.883363236295327 15.835904729763435 C 14.883363236295327 15.72245018430889 14.788817781749874 15.632632002490709 14.675363236295327 15.632632002490709 L 14.448454145386236 15.632632002490709 Z" stroke="#000000" stroke-opacity="1" stroke-width="1" fill="#dddddd" fill-opacity="1"></path>
                  <path d="M 14.56190869084078 15.632632002490709 L 14.56190869084078 16.0675410933998" stroke="#000000" stroke-opacity="1" stroke-width="1" fill="#dddddd" fill-opacity="1"></path>
                </g>
              </svg>
