              <svg name="Group" xmlns="http://www.w3.org/2000/svg" version="1.1" xmlns:xlink="http://www.w3.org/1999/xlink" width="56px" height="56px">
                <g transform="matrix(-1,1.2246467991473532e-16,-1.2246467991473532e-16,-1,48.41666666666667,57.08333333333333)">
                  <path d="M 17.979166666666668 35.77291666666667 L 19.956250000000004 36.88333333333334 L 17.166666666666668 41.56875 C 16.408333333333335 42.895833333333336 14.404166666666669 41.75833333333334 15.162500000000001 40.458333333333336 L 17.979166666666668 35.77291666666667 Z" stroke="#000000" stroke-opacity="1" stroke-width="2" fill="#000000" fill-opacity="1"></path>
                  <path d="M 30.49166666666667 35.77291666666667 L 28.514583333333338 36.88333333333334 L 31.30416666666667 41.56875 C 32.0625 42.895833333333336 34.06666666666667 41.75833333333334 33.30833333333334 40.458333333333336 L 30.49166666666667 35.77291666666667 Z" stroke="#000000" stroke-opacity="1" stroke-width="2" fill="#000000" fill-opacity="1"></path>
                  <path d="M 36.74791666666667 29.733333333333334 C 36.74791666666667 23.070833333333333 31.14166666666667 17.65416666666667 24.23541666666667 17.65416666666667 C 17.32916666666667 17.65416666666667 11.722916666666668 23.070833333333333 11.722916666666668 29.733333333333334 C 11.722916666666668 36.395833333333336 17.32916666666667 41.8125 24.23541666666667 41.8125 C 31.14166666666667 41.8125 36.74791666666667 36.395833333333336 36.74791666666667 29.733333333333334 Z"
                    stroke="#000000" stroke-opacity="1" stroke-width="2" fill="#cccccc" fill-opacity="1"></path>
                  <path d="M 11.722916666666668 16.679166666666667 C 24.23541666666667 14.458333333333334 24.23541666666667 14.43125 36.74791666666667 16.679166666666667 C 38.806250000000006 19.089583333333334 37.31666666666667 21.797916666666666 35.47500000000001 22.691666666666666 C 34.71666666666667 23.043750000000003 30.1125 21.31041666666667 24.23541666666667 21.31041666666667 C 18.358333333333334 21.283333333333335 13.727083333333335 23.043750000000003 12.968750000000002 22.691666666666666
                    C 11.127083333333335 21.825000000000003 9.637500000000001 19.089583333333334 11.722916666666668 16.679166666666667 Z" stroke="#000000" stroke-opacity="1" stroke-width="2" fill="#666666" fill-opacity="1"></path>
                  <path d="M 11.722916666666668 17.275 C 24.23541666666667 15.054166666666667 24.23541666666667 15.027083333333334 36.74791666666667 17.275 C 38.806250000000006 19.68541666666667 37.31666666666667 22.39375 35.47500000000001 23.2875 C 34.71666666666667 23.639583333333334 30.1125 21.90625 24.23541666666667 21.90625 C 18.358333333333334 21.90625 13.727083333333335 23.639583333333334 12.968750000000002 23.2875 C 11.127083333333335 22.420833333333334 9.637500000000001 19.68541666666667 11.722916666666668 17.275 Z"
                    stroke="#000000" stroke-opacity="1" stroke-width="2" fill="#cccccc" fill-opacity="1"></path>
                  <path d="M 10.883333333333335 23.9375 L 13.591666666666669 23.9375 L 13.591666666666669 34.9875 C 11.722916666666668 35.77291666666667 11.722916666666668 35.77291666666667 10.883333333333335 34.9875 L 10.883333333333335 23.9375 Z" stroke="#000000" stroke-opacity="1" stroke-width="2" fill="#666666" fill-opacity="1"></path>
                  <path d="M 34.87916666666667 23.9375 L 37.587500000000006 23.9375 L 37.587500000000006 34.9875 C 36.74791666666667 35.77291666666667 36.74791666666667 35.77291666666667 34.87916666666667 34.9875 L 34.87916666666667 23.9375 Z" stroke="#000000" stroke-opacity="1" stroke-width="2" fill="#666666" fill-opacity="1"></path>
                </g>
                <path d="M 32.333333333333336 2 L 54 2 L 54 28 L 32.333333333333336 28 Z" stroke="#000000" stroke-opacity="1" stroke-width="2" fill="#999999" fill-opacity="1"></path>
                <path d="M 34.5 29.083333333333336 L 51.833333333333336 29.083333333333336 M 34.5 30.166666666666668 L 51.833333333333336 30.166666666666668" stroke="#000000" stroke-opacity="1" stroke-width="1" fill="#999999" fill-opacity="1"></path>
                <path d="M 2 2 L 54 2 L 54 28 L 2 28 Z" stroke="#000000" stroke-opacity="1" stroke-width="2" fill="#eeeeee" fill-opacity="1"></path>
                <path d="M 2 54 L 2 2 L 54 2 L 54 54" stroke="#000000" stroke-opacity="1" stroke-width="5" fill="none"></path>
                <path d="M 19.558666666666667 10.692666666666668 L 28.45066666666667 10.692666666666668 C 29.17866666666667 10.692666666666668 29.776666666666667 11.277666666666669 29.776666666666667 11.992666666666668 L 29.776666666666667 14.163666666666668 C 29.776666666666667 14.89166666666667 29.17866666666667 15.476666666666667 28.45066666666667 15.476666666666667 L 19.558666666666667 15.476666666666667 C 18.830666666666666 15.476666666666667 18.258666666666667 14.89166666666667 18.258666666666667 14.163666666666668 L 18.258666666666667
                  11.992666666666668 C 18.258666666666667 11.277666666666669 18.830666666666666 10.692666666666668 19.558666666666667 10.692666666666668 Z" stroke="#000000" stroke-opacity="1" stroke-width="1" fill="#dddddd" fill-opacity="1"></path>
                <path d="M 15.11266666666667 14.163666666666668 L 32.89666666666667 14.163666666666668 L 34.66466666666667 15.476666666666667 L 13.344666666666669 15.476666666666667 L 15.11266666666667 14.163666666666668 Z" stroke="#000000" stroke-opacity="1" stroke-width="1" fill="#dddddd" fill-opacity="1"></path>
                <path d="M 19.29866666666667 13.292666666666669 L 28.710666666666665 13.292666666666669 L 28.710666666666665 14.124666666666668 L 19.29866666666667 14.124666666666668 L 19.29866666666667 13.292666666666669 Z" stroke="#000000" stroke-opacity="1" stroke-width="1" fill="#dddddd" fill-opacity="1"></path>
                <path d="M 24.00466666666667 11.459666666666667 C 23.666666666666668 11.459666666666667 23.38066666666667 11.745666666666668 23.38066666666667 12.096666666666668 C 23.38066666666667 12.226666666666668 23.406666666666666 12.343666666666667 23.48466666666667 12.447666666666668 L 23.48466666666667 13.253666666666668 L 24.550666666666668 13.253666666666668 L 24.550666666666668 12.447666666666668 C 24.602666666666668 12.343666666666667 24.65466666666667 12.226666666666668 24.65466666666667 12.096666666666668 C 24.65466666666667 11.745666666666668
                  24.36866666666667 11.459666666666667 24.00466666666667 11.459666666666667 Z" stroke="#000000" stroke-opacity="1" stroke-width="1" fill="#dddddd" fill-opacity="1"></path>
                <path d="M 10.692666666666668 17.855666666666668 L 32.01266666666667 17.855666666666668 L 32.01266666666667 23.666666666666668 L 10.692666666666668 23.666666666666668 L 10.692666666666668 17.855666666666668 Z" stroke="#000000" stroke-opacity="1" stroke-width="1" fill="#dddddd" fill-opacity="1"></path>
                <path d="M 11.576666666666668 18.71366666666667 L 27.124666666666666 18.71366666666667 L 27.124666666666666 22.730666666666668 L 11.576666666666668 22.730666666666668 L 11.576666666666668 18.71366666666667 Z" stroke="#000000" stroke-opacity="1" stroke-width="1" fill="#6f6f6f" fill-opacity="1"></path>
                <path d="M 28.00866666666667 18.71366666666667 L 31.128666666666668 18.71366666666667 L 31.128666666666668 22.730666666666668 L 28.00866666666667 22.730666666666668 L 28.00866666666667 18.71366666666667 Z" stroke="#000000" stroke-opacity="1" stroke-width="1" fill="#6f6f6f" fill-opacity="1"></path>
                <path d="M 35.44466666666666 19.33766666666667 C 35.10666666666667 19.33766666666667 34.872666666666674 19.58466666666667 34.872666666666674 19.89666666666667 L 34.872666666666674 21.482666666666667 C 34.872666666666674 21.508666666666667 34.872666666666674 21.534666666666666 34.872666666666674 21.56066666666667 C 34.872666666666674 21.586666666666666 34.872666666666674 21.625666666666667 34.872666666666674 21.651666666666667 C 34.872666666666674 22.132666666666665 35.26266666666667 22.535666666666668 35.75666666666667 22.535666666666668
                  C 36.25066666666667 22.535666666666668 36.64066666666667 22.132666666666665 36.64066666666667 21.651666666666667 C 36.64066666666667 21.625666666666667 36.64066666666667 21.586666666666666 36.64066666666667 21.56066666666667 C 36.64066666666667 21.534666666666666 36.64066666666667 21.508666666666667 36.64066666666667 21.482666666666667 L 36.64066666666667 19.89666666666667 C 36.64066666666667 19.58466666666667 36.38066666666667 19.33766666666667 36.06866666666667 19.33766666666667 L 35.44466666666666 19.33766666666667 Z" stroke="#000000" stroke-opacity="1" stroke-width="1" fill="#dddddd" fill-opacity="1"></path>
                <path d="M 35.75666666666667 19.33766666666667 L 35.75666666666667 20.53366666666667" stroke="#000000" stroke-opacity="1" stroke-width="1" fill="#dddddd" fill-opacity="1"></path>
              </svg>
