              <svg name="Group" xmlns="http://www.w3.org/2000/svg" version="1.1" xmlns:xlink="http://www.w3.org/1999/xlink" width="56px" height="56px">
                <g transform="matrix(-0.7071067811865475,0.7071067811865476,-0.7071067811865476,-0.7071067811865475,64.55962942664223,26.904894324170606)">
                  <path d="M 21.7242953183446 32.60818420723349 L 23.305961985011265 33.49651754056683 L 21.0742953183446 37.24485087390016 C 20.467628651677934 38.30651754056683 18.8642953183446 37.396517540566826 19.470961985011265 36.35651754056683 L 21.7242953183446 32.60818420723349 Z" stroke="#000000" stroke-opacity="1" stroke-width="2" fill="#000000" fill-opacity="1"></path>
                  <path d="M 31.7342953183446 32.60818420723349 L 30.152628651677933 33.49651754056683 L 32.3842953183446 37.24485087390016 C 32.99096198501127 38.30651754056683 34.5942953183446 37.396517540566826 33.98762865167793 36.35651754056683 L 31.7342953183446 32.60818420723349 Z" stroke="#000000" stroke-opacity="1" stroke-width="2" fill="#000000" fill-opacity="1"></path>
                  <path d="M 36.7392953183446 27.77651754056683 C 36.7392953183446 22.446517540566823 32.2542953183446 18.11318420723349 26.729295318344597 18.11318420723349 C 21.2042953183446 18.11318420723349 16.7192953183446 22.446517540566823 16.7192953183446 27.77651754056683 C 16.7192953183446 33.10651754056683 21.2042953183446 37.439850873900156 26.729295318344597 37.439850873900156 C 32.2542953183446 37.439850873900156 36.7392953183446 33.10651754056683 36.7392953183446 27.77651754056683 Z" stroke="#000000" stroke-opacity="1" stroke-width="2" fill="#cccccc" fill-opacity="1"></path>
                  <path d="M 16.7192953183446 17.33318420723349 C 26.729295318344597 15.556517540566825 26.729295318344597 15.534850873900158 36.7392953183446 17.33318420723349 C 38.385961985011264 19.261517540566825 37.1942953183446 21.428184207233492 35.720961985011265 22.143184207233492 C 35.1142953183446 22.42485087390016 31.430961985011265 21.038184207233492 26.729295318344597 21.038184207233492 C 22.027628651677933 21.016517540566824 18.32262865167793 22.42485087390016 17.715961985011266 22.143184207233492 C 16.242628651677933 21.449850873900157 15.050961985011265 19.261517540566825 16.7192953183446 17.33318420723349 Z" stroke="#000000" stroke-opacity="1" stroke-width="2" fill="#666666" fill-opacity="1"></path>
                  <path d="M 16.7192953183446 17.80985087390016 C 26.729295318344597 16.033184207233493 26.729295318344597 16.011517540566825 36.7392953183446 17.80985087390016 C 38.385961985011264 19.73818420723349 37.1942953183446 21.90485087390016 35.720961985011265 22.61985087390016 C 35.1142953183446 22.901517540566825 31.430961985011265 21.51485087390016 26.729295318344597 21.51485087390016 C 22.027628651677933 21.51485087390016 18.32262865167793 22.901517540566825 17.715961985011266 22.61985087390016 C 16.242628651677933 21.926517540566827 15.050961985011265 19.73818420723349 16.7192953183446 17.80985087390016 Z" stroke="#000000" stroke-opacity="1" stroke-width="2" fill="#cccccc" fill-opacity="1"></path>
                  <path d="M 16.047628651677933 23.13985087390016 L 18.2142953183446 23.13985087390016 L 18.2142953183446 31.97985087390016 C 16.7192953183446 32.60818420723349 16.7192953183446 32.60818420723349 16.047628651677933 31.97985087390016 L 16.047628651677933 23.13985087390016 Z" stroke="#000000" stroke-opacity="1" stroke-width="2" fill="#666666" fill-opacity="1"></path>
                  <path d="M 35.2442953183446 23.13985087390016 L 37.41096198501127 23.13985087390016 L 37.41096198501127 31.97985087390016 C 36.7392953183446 32.60818420723349 36.7392953183446 32.60818420723349 35.2442953183446 31.97985087390016 L 35.2442953183446 23.13985087390016 Z" stroke="#000000" stroke-opacity="1" stroke-width="2" fill="#666666" fill-opacity="1"></path>
                </g>
                <path d="M 36.55111111111111 2 L 53.88444444444445 2 L 53.88444444444445 22.8 L 36.55111111111111 22.8 Z" stroke="#000000" stroke-opacity="1" stroke-width="2" fill="#999999" fill-opacity="1"></path>
                <path d="M 38.284444444444446 23.666666666666664 L 52.15111111111111 23.666666666666664 M 38.284444444444446 24.53333333333333 L 52.15111111111111 24.53333333333333" stroke="#000000" stroke-opacity="1" stroke-width="1" fill="#999999" fill-opacity="1"></path>
                <path d="M 1.8844444444444406 2 L 54.11555555555557 2 L 54.11555555555557 22.799999999999997 L 36.55111111111111 22.799999999999997 L 33.08444444444444 19.333333333333332 L 29.61777777777778 19.333333333333332 L 19.217777777777776 29.733333333333334 L 19.217777777777776 33.2 L 22.68444444444444 36.666666666666664 L 22.68444444444444 53.76888888888888 L 1.8844444444444406 53.76888888888888 Z" stroke="#000000" stroke-opacity="1" stroke-width="2" fill="#eeeeee" fill-opacity="1"></path>
                <path d="M 22.68444444444444 54 L 1.8844444444444406 54 L 1.8844444444444406 2 L 53.88444444444444 2 L 53.88444444444444 22.8" stroke="#000000" stroke-opacity="1" stroke-width="5" fill="none"></path>
                <g transform="matrix(0.7071067811865476,-0.7071067811865475,0.7071067811865475,0.7071067811865476,-6.867347126414558,16.415822336239692)">
                  <path d="M 13.09557689762125 11.318332453176808 L 20.20917689762125 11.318332453176808 C 20.791576897621248 11.318332453176808 21.269976897621248 11.786332453176808 21.269976897621248 12.358332453176809 L 21.269976897621248 14.09513245317681 C 21.269976897621248 14.67753245317681 20.791576897621248 15.14553245317681 20.20917689762125 15.14553245317681 L 13.09557689762125 15.14553245317681 C 12.51317689762125 15.14553245317681 12.055576897621249 14.67753245317681 12.055576897621249 14.09513245317681 L 12.055576897621249 12.358332453176809 C 12.055576897621249 11.786332453176808 12.51317689762125 11.318332453176808 13.09557689762125 11.318332453176808 Z" stroke="#000000" stroke-opacity="1" stroke-width="1" fill="#dddddd" fill-opacity="1"></path>
                  <path d="M 9.538776897621249 14.09513245317681 L 23.765976897621247 14.09513245317681 L 25.18037689762125 15.14553245317681 L 8.124376897621248 15.14553245317681 L 9.538776897621249 14.09513245317681 Z" stroke="#000000" stroke-opacity="1" stroke-width="1" fill="#dddddd" fill-opacity="1"></path>
                  <path d="M 12.88757689762125 13.398332453176808 L 20.41717689762125 13.398332453176808 L 20.41717689762125 14.06393245317681 L 12.88757689762125 14.06393245317681 L 12.88757689762125 13.398332453176808 Z" stroke="#000000" stroke-opacity="1" stroke-width="1" fill="#dddddd" fill-opacity="1"></path>
                  <path d="M 16.65237689762125 11.931932453176808 C 16.38197689762125 11.931932453176808 16.15317689762125 12.16073245317681 16.15317689762125 12.441532453176809 C 16.15317689762125 12.545532453176808 16.173976897621248 12.639132453176808 16.23637689762125 12.722332453176808 L 16.23637689762125 13.367132453176808 L 17.08917689762125 13.367132453176808 L 17.08917689762125 12.722332453176808 C 17.13077689762125 12.639132453176808 17.17237689762125 12.545532453176808 17.17237689762125 12.441532453176809 C 17.17237689762125 12.16073245317681 16.94357689762125 11.931932453176808 16.65237689762125 11.931932453176808 Z" stroke="#000000" stroke-opacity="1" stroke-width="1" fill="#dddddd" fill-opacity="1"></path>
                  <path d="M 6.002776897621249 17.04873245317681 L 23.058776897621247 17.04873245317681 L 23.058776897621247 21.69753245317681 L 6.002776897621249 21.69753245317681 L 6.002776897621249 17.04873245317681 Z" stroke="#000000" stroke-opacity="1" stroke-width="1" fill="#dddddd" fill-opacity="1"></path>
                  <path d="M 6.709976897621249 17.73513245317681 L 19.14837689762125 17.73513245317681 L 19.14837689762125 20.94873245317681 L 6.709976897621249 20.94873245317681 L 6.709976897621249 17.73513245317681 Z" stroke="#000000" stroke-opacity="1" stroke-width="1" fill="#6f6f6f" fill-opacity="1"></path>
                  <path d="M 19.85557689762125 17.73513245317681 L 22.35157689762125 17.73513245317681 L 22.35157689762125 20.94873245317681 L 19.85557689762125 20.94873245317681 L 19.85557689762125 17.73513245317681 Z" stroke="#000000" stroke-opacity="1" stroke-width="1" fill="#6f6f6f" fill-opacity="1"></path>
                  <path d="M 25.804376897621246 18.23433245317681 C 25.533976897621248 18.23433245317681 25.34677689762125 18.43193245317681 25.34677689762125 18.681532453176807 L 25.34677689762125 19.950332453176806 C 25.34677689762125 19.971132453176807 25.34677689762125 19.99193245317681 25.34677689762125 20.01273245317681 C 25.34677689762125 20.03353245317681 25.34677689762125 20.06473245317681 25.34677689762125 20.08553245317681 C 25.34677689762125 20.47033245317681 25.658776897621248 20.79273245317681 26.053976897621247 20.79273245317681 C 26.44917689762125 20.79273245317681 26.761176897621247 20.47033245317681 26.761176897621247 20.08553245317681 C 26.761176897621247 20.06473245317681 26.761176897621247 20.03353245317681 26.761176897621247 20.01273245317681 C 26.761176897621247 19.99193245317681 26.761176897621247 19.971132453176807 26.761176897621247 19.950332453176806 L 26.761176897621247 18.681532453176807 C 26.761176897621247 18.43193245317681 26.55317689762125 18.23433245317681 26.303576897621248 18.23433245317681 L 25.804376897621246 18.23433245317681 Z" stroke="#000000" stroke-opacity="1" stroke-width="1" fill="#dddddd" fill-opacity="1"></path>
                  <path d="M 26.053976897621247 18.23433245317681 L 26.053976897621247 19.19113245317681" stroke="#000000" stroke-opacity="1" stroke-width="1" fill="#dddddd" fill-opacity="1"></path>
                </g>
              </svg>
