              <svg name="Group" xmlns="http://www.w3.org/2000/svg" version="1.1" xmlns:xlink="http://www.w3.org/1999/xlink" width="56px" height="56px">
                <g transform="matrix(-0.7071067811865475,0.7071067811865476,-0.7071067811865476,-0.7071067811865475,34.11064124882083,29.887469921519205)">
                  <path d="M 9.085661026392913 24.07435150258339 L 9.650541978773866 24.391613407345297 L 8.853518169250057 25.730303883535772 C 8.63685150258339 26.10947055020244 8.064232454964342 25.78447055020244 8.280899121631009 25.41304197877387 L 9.085661026392913 24.07435150258339 Z" stroke="#000000" stroke-opacity="1" stroke-width="2" fill="#000000" fill-opacity="1"></path>
                  <path d="M 12.660661026392914 24.07435150258339 L 12.095780074011962 24.391613407345297 L 12.89280388353577 25.730303883535772 C 13.109470550202438 26.10947055020244 13.682089597821484 25.78447055020244 13.46542293115482 25.41304197877387 L 12.660661026392914 24.07435150258339 Z" stroke="#000000" stroke-opacity="1" stroke-width="2" fill="#000000" fill-opacity="1"></path>
                  <path d="M 14.448161026392913 22.348756264488152 C 14.448161026392913 20.445184835916724 12.846375312107199 18.897565788297676 10.873161026392914 18.897565788297676 C 8.899946740678628 18.897565788297676 7.298161026392913 20.445184835916724 7.298161026392913 22.348756264488152 C 7.298161026392913 24.25232769305958 8.899946740678628 25.799946740678628 10.873161026392914 25.799946740678628 C 12.846375312107199 25.799946740678628 14.448161026392913 24.25232769305958 14.448161026392913 22.348756264488152 Z" stroke="#000000" stroke-opacity="1" stroke-width="2" fill="#cccccc" fill-opacity="1"></path>
                  <path d="M 7.298161026392913 18.618994359726248 C 10.873161026392914 17.98447055020244 10.873161026392914 17.976732454964342 14.448161026392913 18.618994359726248 C 15.03625626448815 19.307684835916724 14.610661026392913 20.08149435972625 14.084470550202438 20.33685150258339 C 13.867803883535771 20.43744674067863 12.552327693059581 19.942208645440534 10.873161026392914 19.942208645440534 C 9.193994359726247 19.934470550202438 7.870780074011961 20.43744674067863 7.654113407345294 20.33685150258339 C 7.127922931154818 20.089232454964343 6.70232769305958 19.307684835916724 7.298161026392913 18.618994359726248 Z" stroke="#000000" stroke-opacity="1" stroke-width="2" fill="#666666" fill-opacity="1"></path>
                  <path d="M 7.298161026392913 18.789232454964342 C 10.873161026392914 18.154708645440532 10.873161026392914 18.14697055020244 14.448161026392913 18.789232454964342 C 15.03625626448815 19.47792293115482 14.610661026392913 20.251732454964344 14.084470550202438 20.507089597821487 C 13.867803883535771 20.607684835916725 12.552327693059581 20.112446740678628 10.873161026392914 20.112446740678628 C 9.193994359726247 20.112446740678628 7.870780074011961 20.607684835916725 7.654113407345294 20.507089597821487 C 7.127922931154818 20.259470550202437 6.70232769305958 19.47792293115482 7.298161026392913 18.789232454964342 Z" stroke="#000000" stroke-opacity="1" stroke-width="2" fill="#cccccc" fill-opacity="1"></path>
                  <path d="M 7.058280074011961 20.692803883535774 L 7.832089597821485 20.692803883535774 L 7.832089597821485 23.84994674067863 C 7.298161026392913 24.07435150258339 7.298161026392913 24.07435150258339 7.058280074011961 23.84994674067863 L 7.058280074011961 20.692803883535774 Z" stroke="#000000" stroke-opacity="1" stroke-width="2" fill="#666666" fill-opacity="1"></path>
                  <path d="M 13.914232454964342 20.692803883535774 L 14.688041978773866 20.692803883535774 L 14.688041978773866 23.84994674067863 C 14.448161026392913 24.07435150258339 14.448161026392913 24.07435150258339 13.914232454964342 23.84994674067863 L 13.914232454964342 20.692803883535774 Z" stroke="#000000" stroke-opacity="1" stroke-width="2" fill="#666666" fill-opacity="1"></path>
                </g>
                <g transform="matrix(-0.7071067811865475,-0.7071067811865476,0.7071067811865476,-0.7071067811865475,64.27949560815505,70.64199901142356)">
                  <path d="M 44.990422931154825 24.074351502583397 L 45.55530388353578 24.391613407345304 L 44.758280074011964 25.73030388353578 C 44.5416134073453 26.109470550202445 43.96899435972625 25.784470550202446 44.18566102639292 25.413041978773876 L 44.990422931154825 24.074351502583397 Z" stroke="#000000" stroke-opacity="1" stroke-width="2" fill="#000000" fill-opacity="1"></path>
                  <path d="M 48.56542293115483 24.074351502583397 L 48.000541978773875 24.391613407345304 L 48.79756578829768 25.73030388353578 C 49.01423245496435 26.109470550202445 49.58685150258339 25.784470550202446 49.37018483591673 25.413041978773876 L 48.56542293115483 24.074351502583397 Z" stroke="#000000" stroke-opacity="1" stroke-width="2" fill="#000000" fill-opacity="1"></path>
                  <path d="M 50.35292293115482 22.34875626448816 C 50.35292293115482 20.44518483591673 48.75113721686911 18.897565788297683 46.777922931154826 18.897565788297683 C 44.80470864544054 18.897565788297683 43.20292293115482 20.44518483591673 43.20292293115482 22.34875626448816 C 43.20292293115482 24.252327693059588 44.80470864544054 25.799946740678635 46.777922931154826 25.799946740678635 C 48.75113721686911 25.799946740678635 50.35292293115482 24.252327693059588 50.35292293115482 22.34875626448816 Z" stroke="#000000" stroke-opacity="1" stroke-width="2" fill="#cccccc" fill-opacity="1"></path>
                  <path d="M 43.20292293115482 18.618994359726255 C 46.777922931154826 17.984470550202445 46.777922931154826 17.97673245496435 50.35292293115482 18.618994359726255 C 50.94101816925006 19.30768483591673 50.51542293115482 20.081494359726257 49.98923245496435 20.336851502583396 C 49.77256578829768 20.437446740678638 48.45708959782149 19.94220864544054 46.777922931154826 19.94220864544054 C 45.09875626448816 19.934470550202445 43.77554197877387 20.437446740678638 43.558875312107205 20.336851502583396 C 43.032684835916726 20.08923245496435 42.60708959782149 19.30768483591673 43.20292293115482 18.618994359726255 Z" stroke="#000000" stroke-opacity="1" stroke-width="2" fill="#666666" fill-opacity="1"></path>
                  <path d="M 43.20292293115482 18.78923245496435 C 46.777922931154826 18.15470864544054 46.777922931154826 18.146970550202447 50.35292293115482 18.78923245496435 C 50.94101816925006 19.477922931154826 50.51542293115482 20.25173245496435 49.98923245496435 20.507089597821494 C 49.77256578829768 20.607684835916732 48.45708959782149 20.112446740678635 46.777922931154826 20.112446740678635 C 45.09875626448816 20.112446740678635 43.77554197877387 20.607684835916732 43.558875312107205 20.507089597821494 C 43.032684835916726 20.259470550202444 42.60708959782149 19.477922931154826 43.20292293115482 18.78923245496435 Z" stroke="#000000" stroke-opacity="1" stroke-width="2" fill="#cccccc" fill-opacity="1"></path>
                  <path d="M 42.96304197877387 20.69280388353578 L 43.7368515025834 20.69280388353578 L 43.7368515025834 23.849946740678636 C 43.20292293115482 24.074351502583397 43.20292293115482 24.074351502583397 42.96304197877387 23.849946740678636 L 42.96304197877387 20.69280388353578 Z" stroke="#000000" stroke-opacity="1" stroke-width="2" fill="#666666" fill-opacity="1"></path>
                  <path d="M 49.818994359726254 20.69280388353578 L 50.59280388353578 20.69280388353578 L 50.59280388353578 23.849946740678636 C 50.35292293115482 24.074351502583397 50.35292293115482 24.074351502583397 49.818994359726254 23.849946740678636 L 49.818994359726254 20.69280388353578 Z" stroke="#000000" stroke-opacity="1" stroke-width="2" fill="#666666" fill-opacity="1"></path>
                </g>
                <g transform="matrix(6.123233995736766e-17,1,-1,6.123233995736766e-17,89.42857142857143,-9.9047619047619)">
                  <path d="M 46.57142857142857 35.42857142857143 L 52.76190476190476 35.42857142857143 L 52.76190476190476 42.85714285714286 L 46.57142857142857 42.85714285714286 Z" stroke="#000000" stroke-opacity="1" stroke-width="2" fill="#999999" fill-opacity="1"></path>
                  <path d="M 47.19047619047619 43.16666666666667 L 52.14285714285714 43.16666666666667 M 47.19047619047619 43.47619047619048 L 52.14285714285714 43.47619047619048" stroke="#000000" stroke-opacity="1" stroke-width="1" fill="#999999" fill-opacity="1"></path>
                </g>
                <g transform="matrix(6.123233995736766e-17,-1,1,6.123233995736766e-17,-33.42857142857143,46.0952380952381)">
                  <path d="M 3.238095238095238 35.42857142857143 L 9.428571428571429 35.42857142857143 L 9.428571428571429 42.85714285714286 L 3.238095238095238 42.85714285714286 Z" stroke="#000000" stroke-opacity="1" stroke-width="2" fill="#999999" fill-opacity="1"></path>
                  <path d="M 3.857142857142857 43.16666666666667 L 8.80952380952381 43.16666666666667 M 3.857142857142857 43.47619047619048 L 8.80952380952381 43.47619047619048" stroke="#000000" stroke-opacity="1" stroke-width="1" fill="#999999" fill-opacity="1"></path>
                </g>
                <path d="M 2 13.142857142857142 L 24.285714285714285 13.142857142857142 L 24.285714285714285 20.57142857142857 L 14.38095238095238 20.57142857142857 L 13.142857142857142 19.333333333333332 L 11.904761904761905 19.333333333333332 L 8.19047619047619 23.047619047619047 L 8.19047619047619 24.285714285714285 L 9.428571428571427 25.523809523809526 L 9.428571428571427 42.85714285714286 L 2 42.85714285714286 Z" stroke="#000000" stroke-opacity="1" stroke-width="2" fill="#eeeeee" fill-opacity="1"></path>
                <g transform="matrix(6.123233995736766e-17,1,-1,6.123233995736766e-17,50.42857142857143,-5.571428571428571)">
                  <path d="M 33.57142857142858 18.714285714285715 C 35.62277192782858 18.714285714285715 37.28571428571429 20.37722807217143 37.28571428571429 22.42857142857143 C 37.28571428571429 24.479914784971427 35.62277192782858 26.142857142857146 33.57142857142858 26.142857142857146 L 18.714285714285715 26.142857142857146 L 18.714285714285715 18.714285714285715 Z" stroke="#000000" stroke-opacity="1" stroke-width="2" fill="#eeeeee" fill-opacity="1"></path>
                </g>
                <g transform="matrix(6.123233995736766e-17,1,-1,6.123233995736766e-17,70.85714285714286,-14.857142857142863)">
                  <path d="M 28 16.857142857142858 L 57.714285714285715 16.857142857142858 L 57.714285714285715 24.285714285714285 L 40.38095238095238 24.285714285714285 L 39.142857142857146 23.047619047619047 L 37.904761904761905 23.047619047619047 L 34.19047619047619 26.761904761904763 L 34.19047619047619 28 L 35.42857142857143 29.238095238095237 L 35.42857142857143 39.14285714285714 L 28 39.14285714285714 Z" stroke="#000000" stroke-opacity="1" stroke-width="2" fill="#eeeeee" fill-opacity="1"></path>
                </g>
                <path d="M 9.428571428571429 42.85714285714286 L 2 42.85714285714286 L 2 13.142857142857142 L 54 13.142857142857142 L 54 42.85714285714286 L 46.57142857142857 42.85714285714286" stroke="#000000" stroke-opacity="1" stroke-width="5" fill="none"></path>
                <g transform="matrix(0.7071067811865476,-0.7071067811865475,0.7071067811865475,0.7071067811865476,-10.85228645905698,10.441357457198762)">
                  <path d="M 6.003975876134579 16.470833018991723 L 8.544547304706008 16.470833018991723 C 8.752547304706006 16.470833018991723 8.923404447563149 16.63797587613458 8.923404447563149 16.842261590420293 L 8.923404447563149 17.462547304706007 C 8.923404447563149 17.670547304706005 8.752547304706006 17.837690161848865 8.544547304706008 17.837690161848865 L 6.003975876134579 17.837690161848865 C 5.7959758761345785 17.837690161848865 5.632547304706007 17.670547304706005 5.632547304706007 17.462547304706007 L 5.632547304706007 16.842261590420293 C 5.632547304706007 16.63797587613458 5.7959758761345785 16.470833018991723 6.003975876134579 16.470833018991723 Z" stroke="#000000" stroke-opacity="1" stroke-width="1" fill="#dddddd" fill-opacity="1"></path>
                  <path d="M 4.733690161848864 17.462547304706007 L 9.81483301899172 17.462547304706007 L 10.319975876134578 17.837690161848865 L 4.228547304706007 17.837690161848865 L 4.733690161848864 17.462547304706007 Z" stroke="#000000" stroke-opacity="1" stroke-width="1" fill="#dddddd" fill-opacity="1"></path>
                  <path d="M 5.929690161848864 17.213690161848863 L 8.61883301899172 17.213690161848863 L 8.61883301899172 17.45140444756315 L 5.929690161848864 17.45140444756315 L 5.929690161848864 17.213690161848863 Z" stroke="#000000" stroke-opacity="1" stroke-width="1" fill="#dddddd" fill-opacity="1"></path>
                  <path d="M 7.274261590420292 16.68997587613458 C 7.177690161848863 16.68997587613458 7.0959758761345775 16.771690161848863 7.0959758761345775 16.871975876134577 C 7.0959758761345775 16.909118733277435 7.1034044475631495 16.942547304706007 7.125690161848864 16.972261590420292 L 7.125690161848864 17.202547304706005 L 7.430261590420292 17.202547304706005 L 7.430261590420292 16.972261590420292 C 7.445118733277436 16.942547304706007 7.459975876134578 16.909118733277435 7.459975876134578 16.871975876134577 C 7.459975876134578 16.771690161848863 7.378261590420292 16.68997587613458 7.274261590420292 16.68997587613458 Z" stroke="#000000" stroke-opacity="1" stroke-width="1" fill="#dddddd" fill-opacity="1"></path>
                  <path d="M 3.470833018991721 18.517404447563152 L 9.562261590420292 18.517404447563152 L 9.562261590420292 20.177690161848865 L 3.470833018991721 20.177690161848865 L 3.470833018991721 18.517404447563152 Z" stroke="#000000" stroke-opacity="1" stroke-width="1" fill="#dddddd" fill-opacity="1"></path>
                  <path d="M 3.7234044475631496 18.762547304706008 L 8.165690161848865 18.762547304706008 L 8.165690161848865 19.910261590420294 L 3.7234044475631496 19.910261590420294 L 3.7234044475631496 18.762547304706008 Z" stroke="#000000" stroke-opacity="1" stroke-width="1" fill="#6f6f6f" fill-opacity="1"></path>
                  <path d="M 8.418261590420293 18.762547304706008 L 9.309690161848865 18.762547304706008 L 9.309690161848865 19.910261590420294 L 8.418261590420293 19.910261590420294 L 8.418261590420293 18.762547304706008 Z" stroke="#000000" stroke-opacity="1" stroke-width="1" fill="#6f6f6f" fill-opacity="1"></path>
                  <path d="M 10.54283301899172 18.94083301899172 C 10.446261590420292 18.94083301899172 10.37940444756315 19.01140444756315 10.37940444756315 19.100547304706005 L 10.37940444756315 19.553690161848863 C 10.37940444756315 19.561118733277436 10.37940444756315 19.56854730470601 10.37940444756315 19.575975876134578 C 10.37940444756315 19.58340444756315 10.37940444756315 19.59454730470601 10.37940444756315 19.601975876134578 C 10.37940444756315 19.73940444756315 10.49083301899172 19.854547304706006 10.631975876134577 19.854547304706006 C 10.773118733277435 19.854547304706006 10.884547304706008 19.73940444756315 10.884547304706008 19.601975876134578 C 10.884547304706008 19.59454730470601 10.884547304706008 19.58340444756315 10.884547304706008 19.575975876134578 C 10.884547304706008 19.56854730470601 10.884547304706008 19.561118733277436 10.884547304706008 19.553690161848863 L 10.884547304706008 19.100547304706005 C 10.884547304706008 19.01140444756315 10.810261590420293 18.94083301899172 10.721118733277436 18.94083301899172 L 10.54283301899172 18.94083301899172 Z" stroke="#000000" stroke-opacity="1" stroke-width="1" fill="#dddddd" fill-opacity="1"></path>
                  <path d="M 10.631975876134577 18.94083301899172 L 10.631975876134577 19.282547304706007" stroke="#000000" stroke-opacity="1" stroke-width="1" fill="#dddddd" fill-opacity="1"></path>
                </g>
                <g transform="matrix(0.7071067811865476,0.7071067811865475,-0.7071067811865475,0.7071067811865476,27.241237911995725,-29.12507141356021)">
                  <path d="M 47.603975876134584 16.47083301899172 L 50.14454730470601 16.47083301899172 C 50.35254730470601 16.47083301899172 50.52340444756315 16.637975876134576 50.52340444756315 16.84226159042029 L 50.52340444756315 17.462547304706003 C 50.52340444756315 17.670547304706005 50.35254730470601 17.83769016184886 50.14454730470601 17.83769016184886 L 47.603975876134584 17.83769016184886 C 47.39597587613458 17.83769016184886 47.23254730470601 17.670547304706005 47.23254730470601 17.462547304706003 L 47.23254730470601 16.84226159042029 C 47.23254730470601 16.637975876134576 47.39597587613458 16.47083301899172 47.603975876134584 16.47083301899172 Z" stroke="#000000" stroke-opacity="1" stroke-width="1" fill="#dddddd" fill-opacity="1"></path>
                  <path d="M 46.333690161848864 17.462547304706003 L 51.41483301899172 17.462547304706003 L 51.91997587613458 17.83769016184886 L 45.82854730470601 17.83769016184886 L 46.333690161848864 17.462547304706003 Z" stroke="#000000" stroke-opacity="1" stroke-width="1" fill="#dddddd" fill-opacity="1"></path>
                  <path d="M 47.52969016184887 17.21369016184886 L 50.218833018991724 17.21369016184886 L 50.218833018991724 17.451404447563146 L 47.52969016184887 17.451404447563146 L 47.52969016184887 17.21369016184886 Z" stroke="#000000" stroke-opacity="1" stroke-width="1" fill="#dddddd" fill-opacity="1"></path>
                  <path d="M 48.874261590420296 16.689975876134575 C 48.77769016184887 16.689975876134575 48.69597587613458 16.77169016184886 48.69597587613458 16.871975876134574 C 48.69597587613458 16.90911873327743 48.70340444756315 16.942547304706004 48.72569016184887 16.97226159042029 L 48.72569016184887 17.202547304706002 L 49.030261590420295 17.202547304706002 L 49.030261590420295 16.97226159042029 C 49.045118733277434 16.942547304706004 49.05997587613458 16.90911873327743 49.05997587613458 16.871975876134574 C 49.05997587613458 16.77169016184886 48.978261590420296 16.689975876134575 48.874261590420296 16.689975876134575 Z" stroke="#000000" stroke-opacity="1" stroke-width="1" fill="#dddddd" fill-opacity="1"></path>
                  <path d="M 45.07083301899172 18.517404447563145 L 51.16226159042029 18.517404447563145 L 51.16226159042029 20.17769016184886 L 45.07083301899172 20.17769016184886 L 45.07083301899172 18.517404447563145 Z" stroke="#000000" stroke-opacity="1" stroke-width="1" fill="#dddddd" fill-opacity="1"></path>
                  <path d="M 45.32340444756315 18.762547304706004 L 49.765690161848866 18.762547304706004 L 49.765690161848866 19.91026159042029 L 45.32340444756315 19.91026159042029 L 45.32340444756315 18.762547304706004 Z" stroke="#000000" stroke-opacity="1" stroke-width="1" fill="#6f6f6f" fill-opacity="1"></path>
                  <path d="M 50.018261590420295 18.762547304706004 L 50.909690161848864 18.762547304706004 L 50.909690161848864 19.91026159042029 L 50.018261590420295 19.91026159042029 L 50.018261590420295 18.762547304706004 Z" stroke="#000000" stroke-opacity="1" stroke-width="1" fill="#6f6f6f" fill-opacity="1"></path>
                  <path d="M 52.14283301899172 18.940833018991718 C 52.04626159042029 18.940833018991718 51.979404447563155 19.011404447563148 51.979404447563155 19.100547304706005 L 51.979404447563155 19.55369016184886 C 51.979404447563155 19.561118733277432 51.979404447563155 19.568547304706 51.979404447563155 19.575975876134574 C 51.979404447563155 19.583404447563147 51.979404447563155 19.594547304706005 51.979404447563155 19.601975876134574 C 51.979404447563155 19.739404447563146 52.090833018991724 19.854547304706003 52.23197587613458 19.854547304706003 C 52.37311873327744 19.854547304706003 52.48454730470601 19.739404447563146 52.48454730470601 19.601975876134574 C 52.48454730470601 19.594547304706005 52.48454730470601 19.583404447563147 52.48454730470601 19.575975876134574 C 52.48454730470601 19.568547304706 52.48454730470601 19.561118733277432 52.48454730470601 19.55369016184886 L 52.48454730470601 19.100547304706005 C 52.48454730470601 19.011404447563148 52.41026159042029 18.940833018991718 52.32111873327744 18.940833018991718 L 52.14283301899172 18.940833018991718 Z" stroke="#000000" stroke-opacity="1" stroke-width="1" fill="#dddddd" fill-opacity="1"></path>
                  <path d="M 52.23197587613458 18.940833018991718 L 52.23197587613458 19.282547304706004" stroke="#000000" stroke-opacity="1" stroke-width="1" fill="#dddddd" fill-opacity="1"></path>
                </g>
              </svg>
