              <svg name="Group" xmlns="http://www.w3.org/2000/svg" version="1.1" xmlns:xlink="http://www.w3.org/1999/xlink" width="56px" height="56px">
                <g transform="matrix(-0.7071067811865475,0.7071067811865476,-0.7071067811865476,-0.7071067811865475,52.71370815993012,21.834732842820344)">
                  <path d="M 19.00452450948701 27.088899509487007 L 19.81702450948701 27.549316176153674 L 19.32952450948701 28.375357842820343 C 19.018066176153674 28.917024509487007 18.19202450948701 28.47014950948701 18.51702450948701 27.914941176153675 L 19.00452450948701 27.088899509487007 Z" fill="#000000" fill-opacity="1"></path>
                  <path d="M 24.678482842820344 27.088899509487007 L 23.865982842820344 27.549316176153674 L 24.35348284282034 28.375357842820343 C 24.664941176153675 28.917024509487007 25.490982842820344 28.47014950948701 25.16598284282034 27.914941176153675 L 24.678482842820344 27.088899509487007 Z" fill="#000000" fill-opacity="1"></path>
                  <path d="M 28.294107842820342 20.385774509487007 C 28.294107842820342 21.604524509487007 25.39619117615368 22.606607842820342 21.834732842820344 22.606607842820342 C 18.25973284282034 22.606607842820342 15.37535784282034 21.604524509487007 15.37535784282034 20.385774509487007 C 15.37535784282034 19.153482842820342 18.25973284282034 18.164941176153675 21.834732842820344 18.164941176153675 C 25.39619117615368 18.164941176153675 28.294107842820342 19.153482842820342 28.294107842820342 20.385774509487007 Z" stroke="#000000" stroke-opacity="1" stroke-width="2" fill="#aaaaaa" fill-opacity="1"></path>
                  <path d="M 19.00452450948701 27.969107842820343 L 24.664941176153675 27.969107842820343 L 24.35348284282034 20.71077450948701 L 19.32952450948701 20.71077450948701 Z" stroke="#000000" stroke-opacity="1" stroke-width="2" fill="#aaaaaa" fill-opacity="1"></path>
                  <path d="M 26.736816176153674 18.368066176153675 C 26.736816176153674 19.437857842820343 24.543066176153673 20.29098284282034 21.834732842820344 20.29098284282034 C 19.12639950948701 20.29098284282034 16.932649509487007 19.437857842820343 16.932649509487007 18.368066176153675 C 16.932649509487007 17.29827450948701 19.12639950948701 16.44514950948701 21.834732842820344 16.44514950948701 C 24.543066176153673 16.44514950948701 26.736816176153674 17.29827450948701 26.736816176153674 18.368066176153675 Z" stroke="#000000" stroke-opacity="1" stroke-width="2" fill="#aaaaaa" fill-opacity="1"></path>
                  <path d="M 26.736816176153674 17.56910784282034 C 26.736816176153674 18.638899509487008 24.543066176153673 19.49202450948701 21.834732842820344 19.49202450948701 C 19.12639950948701 19.49202450948701 16.932649509487007 18.638899509487008 16.932649509487007 17.56910784282034 C 16.932649509487007 16.499316176153677 19.12639950948701 15.646191176153675 21.834732842820344 15.646191176153675 C 24.543066176153673 15.646191176153675 26.736816176153674 16.499316176153677 26.736816176153674 17.56910784282034 Z" stroke="#000000" stroke-opacity="1" stroke-width="2" fill="#aaaaaa" fill-opacity="1"></path>
                  <path d="M 15.158691176153676 18.286816176153675 C 15.592024509487008 17.08160784282034 17.98889950948701 16.269107842820343 17.894107842820343 17.690982842820343 C 17.839941176153676 18.435774509487008 18.354524509487007 19.437857842820343 17.78577450948701 19.92535784282034 C 17.122232842820342 20.49410784282034 15.307649509487009 20.73785784282034 15.17223284282034 19.73577450948701 C 15.036816176153675 18.774316176153675 15.063899509487008 18.571191176153675 15.158691176153676 18.286816176153675 Z" stroke="#000000" stroke-opacity="1" stroke-width="2" fill="#aaaaaa" fill-opacity="1"></path>
                  <path d="M 28.524316176153675 18.286816176153675 C 28.090982842820342 17.08160784282034 25.694107842820344 16.269107842820343 25.78889950948701 17.690982842820343 C 25.843066176153677 18.435774509487008 25.328482842820343 19.437857842820343 25.897232842820344 19.92535784282034 C 26.547232842820343 20.49410784282034 28.375357842820343 20.73785784282034 28.510774509487007 19.73577450948701 C 28.63264950948701 18.774316176153675 28.61910784282034 18.571191176153675 28.524316176153675 18.286816176153675 Z" stroke="#000000" stroke-opacity="1" stroke-width="2" fill="#aaaaaa" fill-opacity="1"></path>
                  <path d="M 16.810774509487008 15.470149509487008 C 21.834732842820344 14.942024509487009 21.834732842820344 14.955566176153676 26.858691176153677 15.470149509487008 C 26.858691176153677 15.470149509487008 27.237857842820343 15.537857842820342 27.359732842820343 15.971191176153676 C 27.481607842820345 16.390982842820343 27.359732842820343 17.135774509487007 26.858691176153677 17.880566176153675 C 21.834732842820344 18.66598284282034 21.834732842820344 18.652441176153676 16.810774509487008 17.880566176153675 C 16.323274509487007 17.149316176153675 16.255566176153675 16.390982842820343 16.323274509487007 15.971191176153676 C 16.404524509487008 15.537857842820342 16.810774509487008 15.470149509487008 16.810774509487008 15.470149509487008 Z" stroke="#000000" stroke-opacity="1" stroke-width="2" fill="#aaaaaa" fill-opacity="1"></path>
                  <path d="M 17.420149509487008 20.778482842820342 L 19.32952450948701 20.805566176153675 L 19.00452450948701 27.887857842820342 C 19.00452450948701 27.887857842820342 16.95973284282034 28.497232842820342 16.323274509487007 27.887857842820342 C 15.456607842820342 27.034732842820343 16.14723284282034 25.463899509487007 16.323274509487007 24.272232842820344 C 16.512857842820342 23.06702450948701 17.420149509487008 20.778482842820342 17.420149509487008 20.778482842820342 Z" stroke="#000000" stroke-opacity="1" stroke-width="2" fill="#aaaaaa" fill-opacity="1"></path>
                  <path d="M 26.23577450948701 20.778482842820342 L 24.35348284282034 20.805566176153675 L 24.664941176153675 27.887857842820342 C 24.664941176153675 27.887857842820342 26.709732842820344 28.497232842820342 27.346191176153674 27.887857842820342 C 28.21285784282034 27.034732842820343 27.522232842820344 25.463899509487007 27.346191176153674 24.272232842820344 C 27.156607842820343 23.06702450948701 26.23577450948701 20.778482842820342 26.23577450948701 20.778482842820342 Z" stroke="#000000" stroke-opacity="1" stroke-width="2" fill="#aaaaaa" fill-opacity="1"></path>
                  <path d="M 15.510774509487009 20.615982842820344 L 16.810774509487008 20.615982842820344 L 16.810774509487008 25.531607842820343 C 16.810774509487008 26.736816176153674 15.700357842820342 26.709732842820344 15.510774509487009 25.531607842820343 L 15.510774509487009 20.615982842820344 Z" fill="#2b2b2b" fill-opacity="1"></path>
                  <path d="M 28.14514950948701 20.615982842820344 L 26.858691176153677 20.615982842820344 L 26.858691176153677 25.531607842820343 C 26.858691176153677 26.736816176153674 27.969107842820343 26.709732842820344 28.14514950948701 25.531607842820343 L 28.14514950948701 20.615982842820344 Z" fill="#2b2b2b" fill-opacity="1"></path>
                </g>
                <g transform="matrix(6.123233995736766e-17,-1,1,6.123233995736766e-17,-39,58.14048542659883)">
                  <path d="M 4.153576046632743 40.98690937996608 L 14.986909379966077 40.98690937996608 L 14.986909379966077 53.98690937996608 L 4.153576046632743 53.98690937996608 Z" stroke="#000000" stroke-opacity="1" stroke-width="2" fill="#999999" fill-opacity="1"></path>
                  <path d="M 5.236909379966077 54.52857604663275 L 13.903576046632743 54.52857604663275 M 5.236909379966077 55.070242713299415 L 13.903576046632743 55.070242713299415" stroke="#000000" stroke-opacity="1" stroke-width="1" fill="#999999" fill-opacity="1"></path>
                </g>
                <path d="M 43.15357604663275 1.9869093799660762 L 53.986909379966086 1.9869093799660762 L 53.986909379966086 14.986909379966075 L 43.15357604663275 14.986909379966075 Z" stroke="#000000" stroke-opacity="1" stroke-width="2" fill="#999999" fill-opacity="1"></path>
                <path d="M 44.236909379966086 15.528576046632743 L 52.90357604663275 15.528576046632743 M 44.236909379966086 16.07024271329941 L 52.90357604663275 16.07024271329941" stroke="#000000" stroke-opacity="1" stroke-width="1" fill="#999999" fill-opacity="1"></path>
                <path d="M 1.9869093799660762 1.9869093799660762 L 54.013090620033914 1.9869093799660762 L 54.013090620033914 14.986909379966079 L 27.98690937996608 14.986909379966079 C 20.80720763256608 14.986909379966079 14.986909379966079 20.807207632566076 14.986909379966079 27.98690937996608 L 14.986909379966079 54.013090620033914 L 1.9869093799660762 54.013090620033914 Z" stroke="#000000" stroke-opacity="1" stroke-width="2" fill="#eeeeee" fill-opacity="1"></path>
                <path d="M 27.98690937996608 2.528576046632743 C 27.98690937996608 2.2294218071577427 28.229421807157745 1.9869093799660762 28.528576046632747 1.9869093799660762 L 29.61190937996608 1.9869093799660762 C 29.91106361944108 1.9869093799660762 30.153576046632747 2.2294218071577427 30.153576046632747 2.528576046632743 L 30.153576046632747 10.111909379966079 C 30.153576046632747 10.411063619441077 29.91106361944108 10.653576046632743 29.61190937996608 10.653576046632743 L 28.528576046632747 10.653576046632743 C 28.229421807157745 10.653576046632743 27.98690937996608 10.411063619441077 27.98690937996608 10.111909379966079 Z" stroke="#000000" stroke-opacity="1" stroke-width="2" fill="#999999" fill-opacity="1"></path>
                <path d="M 51.82024271329941 2.528576046632743 C 51.82024271329941 2.2294218071577427 52.06275514049108 1.9869093799660762 52.36190937996608 1.9869093799660762 L 53.44524271329941 1.9869093799660762 C 53.74439695277441 1.9869093799660762 53.98690937996608 2.2294218071577427 53.98690937996608 2.528576046632743 L 53.98690937996608 10.111909379966079 C 53.98690937996608 10.411063619441077 53.74439695277441 10.653576046632743 53.44524271329941 10.653576046632743 L 52.36190937996608 10.653576046632743 C 52.06275514049108 10.653576046632743 51.82024271329941 10.411063619441077 51.82024271329941 10.111909379966079 Z" stroke="#000000" stroke-opacity="1" stroke-width="2" fill="#999999" fill-opacity="1"></path>
                <path d="M 30.153576046632747 1.9869093799660762 L 51.82024271329941 1.9869093799660762 L 51.82024271329941 10.111909379966079 L 30.153576046632747 10.111909379966079 Z" stroke="#000000" stroke-opacity="1" stroke-width="2" fill="#999999" fill-opacity="1"></path>
                <g transform="matrix(6.123233995736766e-17,-1,1,6.123233995736766e-17,-34.66666666666668,47.30715209326549)">
                  <path d="M -6.679757286700591 37.195242713299415 C -6.679757286700591 36.89608847382442 -6.437244859508924 36.65357604663275 -6.138090620033924 36.65357604663275 L -5.054757286700591 36.65357604663275 C -4.755603047225591 36.65357604663275 -4.513090620033925 36.89608847382442 -4.513090620033925 37.195242713299415 L -4.513090620033925 44.77857604663275 C -4.513090620033925 45.07773028610775 -4.755603047225591 45.32024271329942 -5.054757286700591 45.32024271329942 L -6.138090620033924 45.32024271329942 C -6.437244859508924 45.32024271329942 -6.679757286700591 45.07773028610775 -6.679757286700591 44.77857604663275 Z" stroke="#000000" stroke-opacity="1" stroke-width="2" fill="#999999" fill-opacity="1"></path>
                  <path d="M 17.153576046632743 37.195242713299415 C 17.153576046632743 36.89608847382442 17.396088473824406 36.65357604663275 17.695242713299407 36.65357604663275 L 18.778576046632743 36.65357604663275 C 19.077730286107744 36.65357604663275 19.320242713299407 36.89608847382442 19.320242713299407 37.195242713299415 L 19.320242713299407 44.77857604663275 C 19.320242713299407 45.07773028610775 19.077730286107744 45.32024271329942 18.778576046632743 45.32024271329942 L 17.695242713299407 45.32024271329942 C 17.396088473824406 45.32024271329942 17.153576046632743 45.07773028610775 17.153576046632743 44.77857604663275 Z" stroke="#000000" stroke-opacity="1" stroke-width="2" fill="#999999" fill-opacity="1"></path>
                  <path d="M -4.513090620033925 36.65357604663275 L 17.153576046632743 36.65357604663275 L 17.153576046632743 44.77857604663275 L -4.513090620033925 44.77857604663275 Z" stroke="#000000" stroke-opacity="1" stroke-width="2" fill="#999999" fill-opacity="1"></path></g><path d="M 14.986909379966075 53.98690937996608 L 1.9869093799660762 53.98690937996608 L 1.9869093799660762 1.9869093799660762 L 53.98690937996608 1.9869093799660762 L 53.98690937996608 14.986909379966075" stroke="#000000" stroke-opacity="1" stroke-width="5" fill="none"></path>
                  <g transform="matrix(0.7071067811865476,-0.7071067811865475,0.7071067811865475,0.7071067811865476,-5.473639132769504,13.21453382986825)">
                    <path d="M 11.160533829868255 9.977533829868248 L 15.606533829868255 9.977533829868248 C 15.970533829868256 9.977533829868248 16.269533829868255 10.270033829868249 16.269533829868255 10.627533829868248 L 16.269533829868255 11.713033829868248 C 16.269533829868255 12.077033829868249 15.970533829868256 12.369533829868248 15.606533829868255 12.369533829868248 L 11.160533829868255 12.369533829868248 C 10.796533829868254 12.369533829868248 10.510533829868255 12.077033829868249 10.510533829868255 11.713033829868248 L 10.510533829868255 10.627533829868248 C 10.510533829868255 10.270033829868249 10.796533829868254 9.977533829868248 11.160533829868255 9.977533829868248 Z" stroke="#000000" stroke-opacity="1" stroke-width="1" fill="#dddddd" fill-opacity="1"></path>
                    <path d="M 8.937533829868254 11.713033829868248 L 17.829533829868254 11.713033829868248 L 18.713533829868254 12.369533829868248 L 8.053533829868254 12.369533829868248 L 8.937533829868254 11.713033829868248 Z" stroke="#000000" stroke-opacity="1" stroke-width="1" fill="#dddddd" fill-opacity="1"></path>
                    <path d="M 11.030533829868254 11.277533829868249 L 15.736533829868254 11.277533829868249 L 15.736533829868254 11.693533829868247 L 11.030533829868254 11.693533829868247 L 11.030533829868254 11.277533829868249 Z" stroke="#000000" stroke-opacity="1" stroke-width="1" fill="#dddddd" fill-opacity="1"></path>
                    <path d="M 13.383533829868256 10.361033829868248 C 13.214533829868255 10.361033829868248 13.071533829868255 10.504033829868249 13.071533829868255 10.679533829868248 C 13.071533829868255 10.744533829868248 13.084533829868255 10.803033829868248 13.123533829868254 10.855033829868248 L 13.123533829868254 11.258033829868248 L 13.656533829868255 11.258033829868248 L 13.656533829868255 10.855033829868248 C 13.682533829868255 10.803033829868248 13.708533829868255 10.744533829868248 13.708533829868255 10.679533829868248 C 13.708533829868255 10.504033829868249 13.565533829868254 10.361033829868248 13.383533829868256 10.361033829868248 Z" stroke="#000000" stroke-opacity="1" stroke-width="1" fill="#dddddd" fill-opacity="1"></path>
                    <path d="M 6.727533829868254 13.559033829868248 L 17.387533829868254 13.559033829868248 L 17.387533829868254 16.464533829868248 L 6.727533829868254 16.464533829868248 L 6.727533829868254 13.559033829868248 Z" stroke="#000000" stroke-opacity="1" stroke-width="1" fill="#dddddd" fill-opacity="1"></path>
                    <path d="M 7.1695338298682545 13.988033829868249 L 14.943533829868255 13.988033829868249 L 14.943533829868255 15.996533829868248 L 7.1695338298682545 15.996533829868248 L 7.1695338298682545 13.988033829868249 Z" stroke="#000000" stroke-opacity="1" stroke-width="1" fill="#6f6f6f" fill-opacity="1"></path>
                    <path d="M 15.385533829868255 13.988033829868249 L 16.945533829868253 13.988033829868249 L 16.945533829868253 15.996533829868248 L 15.385533829868255 15.996533829868248 L 15.385533829868255 13.988033829868249 Z" stroke="#000000" stroke-opacity="1" stroke-width="1" fill="#6f6f6f" fill-opacity="1"></path>
                    <path d="M 19.103533829868255 14.300033829868248 C 18.934533829868254 14.300033829868248 18.817533829868257 14.423533829868248 18.817533829868257 14.579533829868248 L 18.817533829868257 15.372533829868248 C 18.817533829868257 15.385533829868248 18.817533829868257 15.39853382986825 18.817533829868257 15.411533829868247 C 18.817533829868257 15.424533829868249 18.817533829868257 15.444033829868248 18.817533829868257 15.457033829868248 C 18.817533829868257 15.697533829868249 19.012533829868254 15.899033829868248 19.259533829868253 15.899033829868248 C 19.506533829868253 15.899033829868248 19.701533829868254 15.697533829868249 19.701533829868254 15.457033829868248 C 19.701533829868254 15.444033829868248 19.701533829868254 15.424533829868249 19.701533829868254 15.411533829868247 C 19.701533829868254 15.39853382986825 19.701533829868254 15.385533829868248 19.701533829868254 15.372533829868248 L 19.701533829868254 14.579533829868248 C 19.701533829868254 14.423533829868248 19.571533829868255 14.300033829868248 19.415533829868256 14.300033829868248 L 19.103533829868255 14.300033829868248 Z" stroke="#000000" stroke-opacity="1" stroke-width="1" fill="#dddddd" fill-opacity="1"></path>
                    <path d="M 19.259533829868253 14.300033829868248 L 19.259533829868253 14.898033829868249" stroke="#000000" stroke-opacity="1" stroke-width="1" fill="#dddddd" fill-opacity="1"></path>
                  </g>
              </svg>
