              <svg name="Group" xmlns="http://www.w3.org/2000/svg" version="1.1" xmlns:xlink="http://www.w3.org/1999/xlink" width="56px" height="56px">
                <g transform="matrix(-1,1.2246467991473532e-16,-1.2246467991473532e-16,-1,51.66666666666668,73.33333333333333)">
                  <path d="M 17.52777777777778 46.30833333333333 L 20.16388888888889 47.78888888888889 L 16.444444444444446 54.03611111111111 C 15.433333333333334 55.80555555555556 12.761111111111113 54.28888888888888 13.772222222222226 52.55555555555554 L 17.52777777777778 46.30833333333333 Z" stroke="#000000" stroke-opacity="1" stroke-width="2" fill="#000000" fill-opacity="1"></path>
                  <path d="M 34.21111111111111 46.30833333333333 L 31.575000000000003 47.78888888888889 L 35.294444444444444 54.03611111111111 C 36.30555555555556 55.80555555555556 38.977777777777774 54.28888888888888 37.96666666666666 52.55555555555554 L 34.21111111111111 46.30833333333333 Z" stroke="#000000" stroke-opacity="1" stroke-width="2" fill="#000000" fill-opacity="1"></path>
                  <path d="M 42.55277777777777 38.25555555555555 C 42.55277777777777 29.37222222222222 35.077777777777776 22.15 25.869444444444447 22.15 C 16.66111111111111 22.15 9.186111111111114 29.37222222222222 9.186111111111114 38.25555555555555 C 9.186111111111114 47.138888888888886 16.66111111111111 54.3611111111111 25.869444444444447 54.3611111111111 C 35.077777777777776 54.3611111111111 42.55277777777777 47.138888888888886 42.55277777777777 38.25555555555555 Z" stroke="#000000" stroke-opacity="1" stroke-width="2" fill="#cccccc" fill-opacity="1"></path>
                  <path d="M 9.186111111111114 20.849999999999998 C 25.869444444444447 17.88888888888889 25.869444444444447 17.852777777777778 42.55277777777777 20.849999999999998 C 45.29722222222222 24.063888888888886 43.31111111111111 27.674999999999997 40.855555555555554 28.866666666666664 C 39.84444444444444 29.33611111111111 33.705555555555556 27.025 25.869444444444447 27.025 C 18.03333333333333 26.988888888888887 11.858333333333334 29.33611111111111 10.847222222222225 28.866666666666664 C 8.39166666666667 27.71111111111111 6.4055555555555586 24.063888888888886 9.186111111111114 20.849999999999998 Z"
                    stroke="#000000" stroke-opacity="1" stroke-width="2" fill="#666666" fill-opacity="1"></path>
                  <path d="M 9.186111111111114 21.644444444444446 C 25.869444444444447 18.683333333333334 25.869444444444447 18.647222222222222 42.55277777777777 21.644444444444446 C 45.29722222222222 24.85833333333333 43.31111111111111 28.46944444444444 40.855555555555554 29.66111111111111 C 39.84444444444444 30.130555555555553 33.705555555555556 27.819444444444443 25.869444444444447 27.819444444444443 C 18.03333333333333 27.819444444444443 11.858333333333334 30.130555555555553 10.847222222222225 29.66111111111111 C 8.39166666666667 28.505555555555553 6.4055555555555586 24.85833333333333 9.186111111111114 21.644444444444446 Z"
                    stroke="#000000" stroke-opacity="1" stroke-width="2" fill="#cccccc" fill-opacity="1"></path>
                  <path d="M 8.06666666666667 30.52777777777778 L 11.67777777777778 30.52777777777778 L 11.67777777777778 45.261111111111106 C 9.186111111111114 46.30833333333333 9.186111111111114 46.30833333333333 8.06666666666667 45.261111111111106 L 8.06666666666667 30.52777777777778 Z" stroke="#000000" stroke-opacity="1" stroke-width="2" fill="#666666" fill-opacity="1"></path>
                  <path d="M 40.06111111111111 30.52777777777778 L 43.67222222222222 30.52777777777778 L 43.67222222222222 45.261111111111106 C 42.55277777777777 46.30833333333333 42.55277777777777 46.30833333333333 40.06111111111111 45.261111111111106 L 40.06111111111111 30.52777777777778 Z" stroke="#000000" stroke-opacity="1" stroke-width="2" fill="#666666" fill-opacity="1"></path>
                </g>
                <path d="M 36.66666666666667 1.2777777777777786 L 54 1.2777777777777786 L 54 35.94444444444444 L 36.66666666666667 35.94444444444444 Z" stroke="#000000" stroke-opacity="1" stroke-width="2" fill="#999999" fill-opacity="1"></path>
                <path d="M 38.400000000000006 37.388888888888886 L 52.26666666666667 37.388888888888886 M 38.400000000000006 38.83333333333333 L 52.26666666666667 38.83333333333333" stroke="#000000" stroke-opacity="1" stroke-width="1" fill="#999999" fill-opacity="1"></path>
                <path d="M 2.0000000000000036 1.2777777777777786 L 54 1.2777777777777786 L 54 35.94444444444444 L 2.0000000000000036 35.94444444444444 Z" stroke="#000000" stroke-opacity="1" stroke-width="2" fill="#eeeeee" fill-opacity="1"></path>
                <path d="M 2.0000000000000036 35.94444444444444 L 2.0000000000000036 1.2777777777777786 L 54 1.2777777777777786 L 54 35.94444444444444" stroke="#000000" stroke-opacity="1" stroke-width="5" fill="none"></path>
                <path d="M 19.63377777777778 12.867999999999999 L 31.489777777777782 12.867999999999999 C 32.46044444444444 12.867999999999999 33.257777777777775 13.648 33.257777777777775 14.601333333333333 L 33.257777777777775 17.496 C 33.257777777777775 18.466666666666665 32.46044444444444 19.246666666666666 31.489777777777782 19.246666666666666 L 19.63377777777778 19.246666666666666 C 18.663111111111114 19.246666666666666 17.900444444444446 18.466666666666665 17.900444444444446 17.496 L 17.900444444444446 14.601333333333333 C 17.900444444444446 13.648 18.663111111111114 12.867999999999999 19.63377777777778 12.867999999999999 Z"
                  stroke="#000000" stroke-opacity="1" stroke-width="1" fill="#dddddd" fill-opacity="1"></path>
                <path d="M 13.70577777777778 17.496 L 37.41777777777778 17.496 L 39.775111111111116 19.246666666666666 L 11.348444444444446 19.246666666666666 L 13.70577777777778 17.496 Z" stroke="#000000" stroke-opacity="1" stroke-width="1" fill="#dddddd" fill-opacity="1"></path>
                <path d="M 19.287111111111113 16.334666666666664 L 31.836444444444446 16.334666666666664 L 31.836444444444446 17.444 L 19.287111111111113 17.444 L 19.287111111111113 16.334666666666664 Z" stroke="#000000" stroke-opacity="1" stroke-width="1" fill="#dddddd" fill-opacity="1"></path>
                <path d="M 25.561777777777777 13.890666666666664 C 25.111111111111114 13.890666666666664 24.729777777777777 14.271999999999998 24.729777777777777 14.739999999999998 C 24.729777777777777 14.913333333333332 24.764444444444443 15.069333333333333 24.868444444444442 15.207999999999998 L 24.868444444444442 16.282666666666664 L 26.28977777777778 16.282666666666664 L 26.28977777777778 15.207999999999998 C 26.359111111111112 15.069333333333333 26.428444444444445 14.913333333333332 26.428444444444445 14.739999999999998 C 26.428444444444445 14.271999999999998 26.047111111111114 13.890666666666664 25.561777777777777 13.890666666666664 Z"
                  stroke="#000000" stroke-opacity="1" stroke-width="1" fill="#dddddd" fill-opacity="1"></path>
                <path d="M 7.812444444444447 22.418666666666667 L 36.23911111111111 22.418666666666667 L 36.23911111111111 30.166666666666664 L 7.812444444444447 30.166666666666664 L 7.812444444444447 22.418666666666667 Z" stroke="#000000" stroke-opacity="1" stroke-width="1" fill="#dddddd" fill-opacity="1"></path>
                <path d="M 8.991111111111113 23.562666666666665 L 29.72177777777778 23.562666666666665 L 29.72177777777778 28.918666666666667 L 8.991111111111113 28.918666666666667 L 8.991111111111113 23.562666666666665 Z" stroke="#000000" stroke-opacity="1" stroke-width="1" fill="#6f6f6f" fill-opacity="1"></path>
                <path d="M 30.900444444444446 23.562666666666665 L 35.06044444444445 23.562666666666665 L 35.06044444444445 28.918666666666667 L 30.900444444444446 28.918666666666667 L 30.900444444444446 23.562666666666665 Z" stroke="#000000" stroke-opacity="1" stroke-width="1" fill="#6f6f6f" fill-opacity="1"></path>
                <path d="M 40.81511111111111 24.394666666666666 C 40.364444444444445 24.394666666666666 40.05244444444445 24.723999999999997 40.05244444444445 25.139999999999997 L 40.05244444444445 27.254666666666665 C 40.05244444444445 27.28933333333333 40.05244444444445 27.323999999999998 40.05244444444445 27.358666666666664 C 40.05244444444445 27.39333333333333 40.05244444444445 27.44533333333333 40.05244444444445 27.479999999999997 C 40.05244444444445 28.121333333333332 40.57244444444444 28.658666666666665 41.23111111111111 28.658666666666665 C 41.88977777777777 28.658666666666665 42.40977777777778 28.121333333333332 42.40977777777778 27.479999999999997
                  C 42.40977777777778 27.44533333333333 42.40977777777778 27.39333333333333 42.40977777777778 27.358666666666664 C 42.40977777777778 27.323999999999998 42.40977777777778 27.28933333333333 42.40977777777778 27.254666666666665 L 42.40977777777778 25.139999999999997 C 42.40977777777778 24.723999999999997 42.06311111111111 24.394666666666666 41.64711111111111 24.394666666666666 L 40.81511111111111 24.394666666666666 Z" stroke="#000000" stroke-opacity="1" stroke-width="1" fill="#dddddd" fill-opacity="1"></path>
                <path d="M 41.23111111111111 24.394666666666666 L 41.23111111111111 25.98933333333333" stroke="#000000" stroke-opacity="1" stroke-width="1" fill="#dddddd" fill-opacity="1"></path>
              </svg>
